<svg xmlns="http://www.w3.org/2000/svg" width="24" height="24" viewBox="0 0 24 24">
  <path d="m 11,3.0996094 c -4.3523893,0 -7.9003906,3.5480013 -7.9003906,7.9003906 0,4.352389 3.5480013,7.900391 7.9003906,7.900391 4.352389,0 7.900391,-3.548002 7.900391,-7.900391 0,-4.3523893 -3.548002,-7.9003906 -7.900391,-7.9003906 z m 0,1.8007812 c 3.379597,0 6.099609,2.7200122 6.099609,6.0996094 0,3.379597 -2.720012,6.099609 -6.099609,6.099609 C 7.6204028,17.099609 4.9003906,14.379597 4.9003906,11 4.9003906,7.6204028 7.6204028,4.9003906 11,4.9003906 Z"/>
  <path d="m 15.863281,15.863281 a 0.89999998,0.89999998 0 0 0 0,1.273438 l 4,4 a 0.89999998,0.89999998 0 0 0 1.273438,0 0.89999998,0.89999998 0 0 0 0,-1.273438 l -4,-4 a 0.89999998,0.89999998 0 0 0 -1.273438,0 z"/>
</svg>
