<svg xmlns="http://www.w3.org/2000/svg" width="24" height="24" viewBox="0 0 24 24">
  <path d="m 12,7.1503906 c -2.6685131,0 -4.8496094,2.1810963 -4.8496094,4.8496094 0,2.668513 2.1810963,4.849609 4.8496094,4.849609 2.668513,0 4.849609,-2.181096 4.849609,-4.849609 0,-2.6685131 -2.181096,-4.8496094 -4.849609,-4.8496094 z m 0,1.6992188 c 1.749765,0 3.150391,1.4006256 3.150391,3.1503906 0,1.749765 -1.400626,3.150391 -3.150391,3.150391 -1.749765,0 -3.1503906,-1.400626 -3.1503906,-3.150391 0,-1.749765 1.4006256,-3.1503906 3.1503906,-3.1503906 z"/>
  <path d="M 12,1.6503906 A 0.85000002,0.85000002 0 0 0 11.150391,2.5 V 5 A 0.85000002,0.85000002 0 0 0 12,5.8496094 0.85000002,0.85000002 0 0 0 12.849609,5 V 2.5 A 0.85000002,0.85000002 0 0 0 12,1.6503906 Z M 4.9980469,4.9980469 a 0.85000002,0.85000002 0 0 0 0,1.203125 l 1.8007812,1.8007812 a 0.85000002,0.85000002 0 0 0 1.203125,0 0.85000002,0.85000002 0 0 0 0,-1.203125 L 6.2011719,4.9980469 a 0.85000002,0.85000002 0 0 0 -1.203125,0 z m 12.8007811,0 -1.800781,1.8007812 a 0.85000002,0.85000002 0 0 0 0,1.203125 0.85000002,0.85000002 0 0 0 1.203125,0 l 1.800781,-1.8007812 a 0.85000002,0.85000002 0 0 0 0,-1.203125 0.85000002,0.85000002 0 0 0 -1.203125,0 z M 2.5,11.150391 A 0.85000002,0.85000002 0 0 0 1.6503906,12 0.85000002,0.85000002 0 0 0 2.5,12.849609 H 5 A 0.85000002,0.85000002 0 0 0 5.8496094,12 0.85000002,0.85000002 0 0 0 5,11.150391 Z m 16.5,0 A 0.85000002,0.85000002 0 0 0 18.150391,12 0.85000002,0.85000002 0 0 0 19,12.849609 h 2.5 A 0.85000002,0.85000002 0 0 0 22.349609,12 0.85000002,0.85000002 0 0 0 21.5,11.150391 Z M 6.7988281,15.998047 4.9980469,17.798828 a 0.85000002,0.85000002 0 0 0 0,1.203125 0.85000002,0.85000002 0 0 0 1.203125,0 l 1.8007812,-1.800781 a 0.85000002,0.85000002 0 0 0 0,-1.203125 0.85000002,0.85000002 0 0 0 -1.203125,0 z m 9.1992189,0 a 0.85000002,0.85000002 0 0 0 0,1.203125 l 1.800781,1.800781 a 0.85000002,0.85000002 0 0 0 1.203125,0 0.85000002,0.85000002 0 0 0 0,-1.203125 l -1.800781,-1.800781 a 0.85000002,0.85000002 0 0 0 -1.203125,0 z M 12,18.150391 A 0.85000002,0.85000002 0 0 0 11.150391,19 v 2.5 A 0.85000002,0.85000002 0 0 0 12,22.349609 0.85000002,0.85000002 0 0 0 12.849609,21.5 V 19 A 0.85000002,0.85000002 0 0 0 12,18.150391 Z"/>
</svg>
